<svg xmlns="http://www.w3.org/2000/svg" viewBox="0 0 1040 360" role="img" aria-labelledby="title desc">
  <title id="title">Matmul represented as a 1x1 convolution</title>
  <desc id="desc">A linear projection y equals W x is equivalent to a 1x1 Conv2d over an activation shaped as batch 1, channels, tokens, width 1.</desc>
  <defs>
    <style>
      text { font-family: -apple-system, BlinkMacSystemFont, "Segoe UI", sans-serif; fill: #132033; }
      .panel { fill: #ffffff; stroke: #334155; stroke-width: 2; rx: 12; }
      .input { fill: #e8fff5; stroke: #0f9f6e; stroke-width: 2; }
      .kernel { fill: #eef6ff; stroke: #2563eb; stroke-width: 2; }
      .output { fill: #f5f3ff; stroke: #7c3aed; stroke-width: 2; }
      .arrow { stroke: #475569; stroke-width: 2.5; marker-end: url(#arrow); fill: none; }
      .label { font-size: 18px; font-weight: 700; }
      .small { font-size: 15px; fill: #475569; }
      .code { font-family: ui-monospace, SFMono-Regular, Menlo, monospace; font-size: 15px; }
      .code-small { font-family: ui-monospace, SFMono-Regular, Menlo, monospace; font-size: 13px; fill: #334155; }
    </style>
    <marker id="arrow" viewBox="0 0 10 10" refX="9" refY="5" markerWidth="8" markerHeight="8" orient="auto-start-reverse">
      <path d="M 0 0 L 10 5 L 0 10 z" fill="#475569" />
    </marker>
  </defs>
  <rect width="1040" height="360" fill="#f8fafc" />
  <text x="520" y="36" text-anchor="middle" class="label">The ANE trick: express a linear layer as a 1x1 Conv2d</text>

  <rect x="48" y="78" width="370" height="220" class="panel" />
  <text x="233" y="112" text-anchor="middle" class="label">Linear algebra view</text>
  <rect x="92" y="148" width="128" height="82" class="kernel" />
  <line x1="135" y1="148" x2="135" y2="230" stroke="#93c5fd" />
  <line x1="177" y1="148" x2="177" y2="230" stroke="#93c5fd" />
  <text x="156" y="258" text-anchor="middle" class="code">W</text>
  <text x="156" y="278" text-anchor="middle" class="code-small">[C_out, C_in]</text>
  <text x="250" y="196" text-anchor="middle" class="label">x</text>
  <rect x="288" y="138" width="46" height="102" class="input" />
  <text x="311" y="258" text-anchor="middle" class="code">x</text>
  <text x="311" y="278" text-anchor="middle" class="code-small">[C_in]</text>
  <path d="M334 189 H382" class="arrow" />
  <text x="370" y="220" text-anchor="middle" class="code-small">y</text>

  <path d="M438 188 H586" class="arrow" />
  <text x="512" y="168" text-anchor="middle" class="small">same operation</text>

  <rect x="608" y="78" width="382" height="220" class="panel" />
  <text x="799" y="112" text-anchor="middle" class="label">ANE/CoreML view</text>
  <rect x="648" y="142" width="126" height="82" class="input" />
  <line x1="669" y1="142" x2="669" y2="224" stroke="#86efac" />
  <line x1="690" y1="142" x2="690" y2="224" stroke="#86efac" />
  <line x1="711" y1="142" x2="711" y2="224" stroke="#86efac" />
  <line x1="732" y1="142" x2="732" y2="224" stroke="#86efac" />
  <text x="711" y="249" text-anchor="middle" class="code">input</text>
  <text x="711" y="270" text-anchor="middle" class="code-small">[1, C_in, T, 1]</text>

  <path d="M774 183 H813" class="arrow" />
  <rect x="816" y="154" width="70" height="58" class="kernel" />
  <text x="851" y="179" text-anchor="middle" class="code">1x1</text>
  <text x="851" y="199" text-anchor="middle" class="code-small">Conv2d</text>

  <path d="M886 183 H922" class="arrow" />
  <rect x="925" y="142" width="42" height="82" class="output" />
  <text x="946" y="246" text-anchor="middle" class="code">output</text>
  <text x="946" y="266" text-anchor="middle" class="code-small">[1, C_out,</text>
  <text x="946" y="283" text-anchor="middle" class="code-small">T, 1]</text>

  <text x="799" y="318" text-anchor="middle" class="small">The token axis stays spatial; the channel axis carries model width.</text>
</svg>